<mxfile host="Electron" agent="Mozilla/5.0 (Windows NT 10.0; Win64; x64) AppleWebKit/537.36 (KHTML, like Gecko) draw.io/27.0.9 Chrome/134.0.6998.205 Electron/35.4.0 Safari/537.36" version="27.0.9">
  <diagram name="Page-1" id="VY9zA8xySYgAm7iP2E9F">
    <mxGraphModel dx="1426" dy="841" grid="1" gridSize="10" guides="1" tooltips="1" connect="1" arrows="1" fold="1" page="1" pageScale="1" pageWidth="850" pageHeight="1100" math="0" shadow="0">
      <root>
        <mxCell id="0" />
        <mxCell id="1" parent="0" />
        <mxCell id="XlNCGSIVHIVL0GmTE-tO-21" style="edgeStyle=orthogonalEdgeStyle;rounded=0;orthogonalLoop=1;jettySize=auto;html=1;" edge="1" parent="1" source="XlNCGSIVHIVL0GmTE-tO-4" target="XlNCGSIVHIVL0GmTE-tO-19">
          <mxGeometry relative="1" as="geometry" />
        </mxCell>
        <mxCell id="XlNCGSIVHIVL0GmTE-tO-4" value="Trainer" style="ellipse;whiteSpace=wrap;html=1;" vertex="1" parent="1">
          <mxGeometry x="40" y="130" width="120" height="80" as="geometry" />
        </mxCell>
        <mxCell id="XlNCGSIVHIVL0GmTE-tO-20" style="edgeStyle=orthogonalEdgeStyle;rounded=0;orthogonalLoop=1;jettySize=auto;html=1;" edge="1" parent="1" target="XlNCGSIVHIVL0GmTE-tO-19">
          <mxGeometry relative="1" as="geometry">
            <mxPoint x="350" y="170" as="sourcePoint" />
          </mxGeometry>
        </mxCell>
        <mxCell id="XlNCGSIVHIVL0GmTE-tO-26" style="edgeStyle=orthogonalEdgeStyle;rounded=0;orthogonalLoop=1;jettySize=auto;html=1;" edge="1" parent="1" source="XlNCGSIVHIVL0GmTE-tO-8" target="XlNCGSIVHIVL0GmTE-tO-24">
          <mxGeometry relative="1" as="geometry" />
        </mxCell>
        <mxCell id="XlNCGSIVHIVL0GmTE-tO-8" value="Display (BT,Screen, ect..)" style="rounded=1;whiteSpace=wrap;html=1;" vertex="1" parent="1">
          <mxGeometry x="580" y="140" width="120" height="60" as="geometry" />
        </mxCell>
        <mxCell id="XlNCGSIVHIVL0GmTE-tO-11" value="These would talk in varous different ways." style="text;html=1;align=center;verticalAlign=middle;whiteSpace=wrap;rounded=0;" vertex="1" parent="1">
          <mxGeometry x="480" y="180" width="80" height="30" as="geometry" />
        </mxCell>
        <mxCell id="XlNCGSIVHIVL0GmTE-tO-12" value="&lt;font style=&quot;font-size: 21px;&quot;&gt;Current prototyping design&lt;/font&gt;" style="text;html=1;align=center;verticalAlign=middle;whiteSpace=wrap;rounded=0;" vertex="1" parent="1">
          <mxGeometry x="269" y="10" width="312" height="80" as="geometry" />
        </mxCell>
        <mxCell id="XlNCGSIVHIVL0GmTE-tO-14" value="" style="endArrow=none;html=1;rounded=0;" edge="1" parent="1">
          <mxGeometry width="50" height="50" relative="1" as="geometry">
            <mxPoint y="360" as="sourcePoint" />
            <mxPoint x="850" y="360" as="targetPoint" />
          </mxGeometry>
        </mxCell>
        <mxCell id="XlNCGSIVHIVL0GmTE-tO-22" style="edgeStyle=orthogonalEdgeStyle;rounded=0;orthogonalLoop=1;jettySize=auto;html=1;" edge="1" parent="1" source="XlNCGSIVHIVL0GmTE-tO-19" target="XlNCGSIVHIVL0GmTE-tO-4">
          <mxGeometry relative="1" as="geometry" />
        </mxCell>
        <mxCell id="XlNCGSIVHIVL0GmTE-tO-23" style="edgeStyle=orthogonalEdgeStyle;rounded=0;orthogonalLoop=1;jettySize=auto;html=1;" edge="1" parent="1" source="XlNCGSIVHIVL0GmTE-tO-19" target="XlNCGSIVHIVL0GmTE-tO-24">
          <mxGeometry relative="1" as="geometry">
            <mxPoint x="350" y="170" as="targetPoint" />
          </mxGeometry>
        </mxCell>
        <mxCell id="XlNCGSIVHIVL0GmTE-tO-32" style="edgeStyle=orthogonalEdgeStyle;rounded=0;orthogonalLoop=1;jettySize=auto;html=1;entryX=0;entryY=0.5;entryDx=0;entryDy=0;" edge="1" parent="1" source="XlNCGSIVHIVL0GmTE-tO-19" target="XlNCGSIVHIVL0GmTE-tO-30">
          <mxGeometry relative="1" as="geometry">
            <Array as="points">
              <mxPoint x="260" y="300" />
            </Array>
          </mxGeometry>
        </mxCell>
        <mxCell id="XlNCGSIVHIVL0GmTE-tO-19" value="CAN BUS" style="rhombus;whiteSpace=wrap;html=1;" vertex="1" parent="1">
          <mxGeometry x="220" y="130" width="80" height="80" as="geometry" />
        </mxCell>
        <mxCell id="XlNCGSIVHIVL0GmTE-tO-25" style="edgeStyle=orthogonalEdgeStyle;rounded=0;orthogonalLoop=1;jettySize=auto;html=1;" edge="1" parent="1" source="XlNCGSIVHIVL0GmTE-tO-24" target="XlNCGSIVHIVL0GmTE-tO-8">
          <mxGeometry relative="1" as="geometry" />
        </mxCell>
        <mxCell id="XlNCGSIVHIVL0GmTE-tO-24" value="Gateway" style="ellipse;whiteSpace=wrap;html=1;" vertex="1" parent="1">
          <mxGeometry x="358" y="130" width="120" height="80" as="geometry" />
        </mxCell>
        <mxCell id="XlNCGSIVHIVL0GmTE-tO-33" style="edgeStyle=orthogonalEdgeStyle;rounded=0;orthogonalLoop=1;jettySize=auto;html=1;entryX=0.5;entryY=1;entryDx=0;entryDy=0;" edge="1" parent="1" source="XlNCGSIVHIVL0GmTE-tO-30" target="XlNCGSIVHIVL0GmTE-tO-19">
          <mxGeometry relative="1" as="geometry" />
        </mxCell>
        <mxCell id="XlNCGSIVHIVL0GmTE-tO-30" value="External Diagnostic Tool" style="ellipse;whiteSpace=wrap;html=1;" vertex="1" parent="1">
          <mxGeometry x="358" y="260" width="120" height="80" as="geometry" />
        </mxCell>
        <mxCell id="XlNCGSIVHIVL0GmTE-tO-34" value="External tool needs to not interfere with other systems." style="text;html=1;align=center;verticalAlign=middle;whiteSpace=wrap;rounded=0;" vertex="1" parent="1">
          <mxGeometry x="260" y="210" width="100" height="70" as="geometry" />
        </mxCell>
      </root>
    </mxGraphModel>
  </diagram>
</mxfile>
